<svg xmlns="http://www.w3.org/2000/svg" viewBox="0 0 583.64 107.32"><defs><style>.cls-1{fill:#ff6e0c;}.cls-2{fill:#f20c90;}</style></defs><g id="Слой_2" data-name="Слой 2"><g id="OBJECTS"><path class="cls-1" d="M42,72.23c10.78,0,18.69-7.07,18.69-18.57S52.76,35.09,42,35.09H33.35V72.23ZM0,86.09V21.23C0,10.17,7.91,2.06,18.69,2.06H41C70.45,2.06,94,22,94,53.66S70.45,105.26,41,105.26H18.69C7.91,105.26,0,97.15,0,86.09"/><path class="cls-1" d="M102.65,63.09V17.4c0-10,7-17.4,16.68-17.4S136,7.37,136,17.4V61.92c0,6.78,4.89,11.49,10.64,11.49s10.64-4.71,10.64-11.49V17.4c0-10,7-17.4,16.67-17.4s16.68,7.37,16.68,17.4V63.09c0,25.51-17.54,44.23-44,44.23s-44-18.72-44-44.23"/><path class="cls-1" d="M202.14,88V16.07C202.14,6.63,209.19,0,218.25,0c7,0,11.64,3.24,15.52,8.55L253,35.09a159.64,159.64,0,0,1,10.35,15.62V19.16C263.39,8,269.14,0,280.07,0s16.67,8,16.67,19.16V91.25a15.6,15.6,0,0,1-15.95,16.07c-7.19,0-11.65-3.24-15.67-8.55L244.7,72.23c-3-4-6.47-9.28-9.2-13.71V88c0,11.35-5.75,19.31-16.68,19.31s-16.68-8-16.68-19.31"/><path class="cls-1" d="M362,99.65,348.79,83.14c-3.16-4-4.45-5.6-7.19-9.43V89.92c0,10.18-6.9,17.4-16.67,17.4s-16.68-7.22-16.68-17.4V17.4c0-10.18,6.9-17.4,16.68-17.4S341.6,7.22,341.6,17.4V33c2.59-3.83,4-5.75,7.19-9.88l11.5-15c15.24-19.9,42.27,3.39,25.88,23l-18.4,22.11,19.84,23C403.28,94.35,378,119.7,362,99.65"/><path class="cls-1" d="M403,89.92V17.4C403,7.22,409.89,0,419.67,0s16.68,7.22,16.68,17.4V89.92c0,10.18-6.9,17.4-16.68,17.4S403,100.1,403,89.92"/><path class="cls-1" d="M447.85,88V16.07c0-9.44,7-16.07,16.1-16.07C471,0,475.6,3.24,479.48,8.55l19.26,26.54A159.68,159.68,0,0,1,509.1,50.71V19.16C509.1,8,514.85,0,525.77,0s16.68,8,16.68,19.16V91.25a15.6,15.6,0,0,1-16,16.07c-7.19,0-11.64-3.24-15.67-8.55L490.4,72.23c-3-4-6.46-9.28-9.2-13.71V88c0,11.35-5.75,19.31-16.67,19.31s-16.68-8-16.68-19.31"/><path class="cls-2" d="M570.35.2c5.78.78,11.86,4.91,13.07,12.28.67,4-.26,9.3-2,15.71-1.71,6.15-3.45,11.81-7.28,15.24a12,12,0,0,1-9.68,3l-.14,0a12.15,12.15,0,0,1-8.59-5.45c-2.82-4.34-3.05-10.27-3.13-16.66-.08-6.66.36-12,2-15.71,3-6.79,10-9.15,15.75-8.35"/></g></g></svg>