<svg width="82" height="28" viewBox="0 0 82 28" fill="none" xmlns="http://www.w3.org/2000/svg">
<path d="M12.7455 1.2529C13.3322 0.9157 14.054 0.9157 14.6407 1.2529L23.4327 6.30617C24.0225 6.64516 24.3861 7.27337 24.3861 7.95344V18.0466C24.3861 18.7266 24.0225 19.3548 23.4327 19.6938L14.6407 24.7471C14.054 25.0843 13.3322 25.0843 12.7455 24.7471L3.9534 19.6938C3.3636 19.3548 3 18.7266 3 18.0466L3 7.95344C3 7.27337 3.3636 6.64516 3.9534 6.30617L12.7455 1.2529Z" fill="url(#paint0_linear)"/>
<ellipse cx="13.6932" cy="12.9998" rx="7.12871" ry="7.12871" fill="url(#paint1_radial)"/>
<g filter="url(#filter0_f)">
<ellipse cx="13.6933" cy="13.7128" rx="3.56436" ry="3.56436" fill="#1B85E8"/>
</g>
<ellipse cx="13.6933" cy="12.9999" rx="3.56436" ry="3.56436" fill="url(#paint2_linear)"/>
<path d="M31.5146 17.53C31.5417 17.3787 31.5552 17.214 31.5552 17.036V8.65127H32.9083L36.4941 14.2188V9.10522C36.4941 8.86044 36.4715 8.70912 36.4264 8.65127H38.2531C38.2305 8.82929 38.2193 9.02511 38.2193 9.23873V17.53H36.812L33.2804 12.1827V17.53H31.5146Z" fill="white"/>
<path d="M43.4706 16.4752C43.0602 16.088 42.7355 15.6229 42.4964 15.08C42.2619 14.537 42.1446 13.9429 42.1446 13.2976C42.1446 12.6478 42.2551 12.0336 42.4761 11.4551C42.6971 10.8765 43.0128 10.3669 43.4233 9.92633C43.8337 9.48573 44.3299 9.13637 44.9117 8.87824C45.4935 8.61566 46.1453 8.48438 46.8669 8.48438C48.1118 8.48438 49.1604 8.87157 50.0129 9.64595C50.924 10.4737 51.3795 11.5908 51.3795 12.9972C51.3795 14.359 50.9104 15.4917 49.9723 16.3951C49.395 16.9514 48.7071 17.3342 47.9088 17.5433C47.5164 17.6457 47.0564 17.6969 46.5287 17.6969C46.0055 17.6969 45.4665 17.5901 44.9117 17.3764C44.3614 17.1628 43.8811 16.8624 43.4706 16.4752ZM44.0254 13.2041C44.0254 13.618 44.0953 13.9985 44.2351 14.3457C44.375 14.6928 44.5689 14.991 44.817 15.2402C45.3447 15.7654 46.0235 16.0279 46.8534 16.0279C47.6427 16.0279 48.2764 15.7765 48.7545 15.2736C49.2416 14.7529 49.4852 14.043 49.4852 13.144C49.4852 12.2984 49.2529 11.593 48.7883 11.0278C48.2877 10.4226 47.6021 10.1199 46.7316 10.1199C45.8882 10.1199 45.2184 10.427 44.7223 11.0412C44.2577 11.6153 44.0254 12.3363 44.0254 13.2041Z" fill="white"/>
<path d="M57.0301 17.57C56.8136 17.5433 56.3964 17.53 55.7784 17.53H55.2372V8.62457C55.5259 8.64237 55.8438 8.65127 56.1911 8.65127C56.5384 8.65127 56.7843 8.63347 56.9286 8.59786L59.2018 12.4097L61.387 8.59786C61.5314 8.63347 61.8065 8.65127 62.2124 8.65127C62.6184 8.65127 62.9657 8.64237 63.2543 8.62457V17.53H62.7131C62.0952 17.53 61.678 17.5433 61.4615 17.57V11.5886L59.2491 15.4939L57.0301 11.9023V17.57Z" fill="white"/>
<path d="M67.9104 8.62457C68.3614 8.64237 68.6343 8.65127 68.729 8.65127H69.2161C69.4551 8.65127 69.6468 8.63347 69.7912 8.59786L69.7844 17.53H67.9104V8.62457Z" fill="white"/>
<path d="M75.0628 17.5834C74.6749 17.5478 74.2217 17.53 73.703 17.53H73.1685L76.1115 9.39227C76.2423 9.02733 76.3077 8.81594 76.3077 8.75808C76.3077 8.69577 76.3054 8.65794 76.3009 8.64459L76.3077 8.63124C76.6009 8.64459 76.9121 8.65127 77.2413 8.65127C77.5119 8.65127 77.8367 8.64682 78.2156 8.63792L78.2223 8.65127C78.2133 8.66907 78.2088 8.69355 78.2088 8.7247C78.2088 8.80926 78.2764 9.03401 78.4118 9.39895L81.4156 17.55C81.3254 17.5455 81.2194 17.5433 81.0977 17.5433C81.0977 17.5433 80.9804 17.5389 80.7459 17.53C80.6331 17.53 80.5316 17.53 80.4414 17.53H79.3928L78.7568 15.6074H75.6988L75.0628 17.5834ZM78.2291 14.0052L77.2075 10.901L76.213 14.0052H78.2291Z" fill="white"/>
<defs>
<filter id="filter0_f" x="0.128906" y="0.148438" width="27.1287" height="27.1287" filterUnits="userSpaceOnUse" color-interpolation-filters="sRGB">
<feFlood flood-opacity="0" result="BackgroundImageFix"/>
<feBlend mode="normal" in="SourceGraphic" in2="BackgroundImageFix" result="shape"/>
<feGaussianBlur stdDeviation="5" result="effect1_foregroundBlur"/>
</filter>
<linearGradient id="paint0_linear" x1="8.16843" y1="3.95652" x2="19.8223" y2="21.9582" gradientUnits="userSpaceOnUse">
<stop stop-color="white"/>
<stop offset="1" stop-color="#DEF0FD"/>
</linearGradient>
<radialGradient id="paint1_radial" cx="0" cy="0" r="1" gradientUnits="userSpaceOnUse" gradientTransform="translate(17.5581 18.9261) rotate(-127.999) scale(13.9509 12.1781)">
<stop stop-color="#409BEF"/>
<stop offset="1" stop-color="#88CDFF"/>
</radialGradient>
<linearGradient id="paint2_linear" x1="11.8517" y1="10.3137" x2="15.136" y2="16.0071" gradientUnits="userSpaceOnUse">
<stop stop-color="white"/>
<stop offset="1" stop-color="#DEF0FD"/>
</linearGradient>
</defs>
</svg>
